<svg xmlns="http://www.w3.org/2000/svg" xmlns:xlink="http://www.w3.org/1999/xlink" viewBox="0 0 15.5 15.5">
    <defs>
        <radialGradient id="radial-gradient" cx="1.87" cy="14.18" r="19.35" gradientUnits="userSpaceOnUse">
            <stop offset="0" stop-color="#fbad4c"></stop>
            <stop offset="0.49" stop-color="#de2a72"></stop>
            <stop offset="1" stop-color="#9c4198"></stop>
        </radialGradient>
        <radialGradient id="radial-gradient-3" cx="1.87" cy="14.29" r="19.35" xlink:href="#radial-gradient"></radialGradient>
    </defs>
    <g data-name="Layer 2">
        <g data-name="Layer 1">
            <path d="M10.91,1.37a3.23,3.23,0,0,1,3.23,3.23v6.32a3.23,3.23,0,0,1-3.23,3.23H4.59a3.23,3.23,0,0,1-3.23-3.23V4.59A3.23,3.23,0,0,1,4.59,1.37h6.32m0-1.37H4.59A4.59,4.59,0,0,0,0,4.59v6.32A4.59,4.59,0,0,0,4.59,15.5h6.32a4.59,4.59,0,0,0,4.59-4.59V4.59A4.59,4.59,0,0,0,10.91,0Z" style="fill:url(#radial-gradient)"></path>
            <path d="M7.75,5.11A2.64,2.64,0,1,1,5.11,7.75,2.65,2.65,0,0,1,7.75,5.11m0-1.37a4,4,0,1,0,4,4,4,4,0,0,0-4-4Z" style="fill:url(#radial-gradient)"></path>
            <path d="M11.89,2.84a.9.9,0,1,0,.9.9.9.9,0,0,0-.9-.9Z" style="fill:url(#radial-gradient-3)"></path>
        </g>
    </g>
</svg>
