<svg width="23px" height="22px" xmlns="http://www.w3.org/2000/svg" viewBox="0 0 15.6 12.68">
    <title>Asset 6</title>
    <g id="Layer_2" data-name="Layer 2">
        <g id="Layer_1-2" data-name="Layer 1">
            <path id="Twitter"
                  d="M15.6,1.5a6.4,6.4,0,0,1-1.84.5A3.21,3.21,0,0,0,15.17.23a6.41,6.41,0,0,1-2,.78A3.2,3.2,0,0,0,7.68,3.93,9.09,9.09,0,0,1,1.09.59a3.2,3.2,0,0,0,1,4.27,3.19,3.19,0,0,1-1.45-.4v0A3.2,3.2,0,0,0,3.19,7.64a3.21,3.21,0,0,1-1.45.05,3.2,3.2,0,0,0,3,2.22,6.42,6.42,0,0,1-4,1.37,6.51,6.51,0,0,1-.76,0,9.06,9.06,0,0,0,4.91,1.44A9,9,0,0,0,14,3.57q0-.21,0-.41A6.5,6.5,0,0,0,15.6,1.5Z"
                  style="fill:#059ff5"></path>
        </g>
    </g>
</svg>
